<?xml version="1.0" encoding="UTF-8"?>
<svg xmlns="http://www.w3.org/2000/svg" xmlns:xlink="http://www.w3.org/1999/xlink" width="118px" height="80px" viewBox="0 0 117 80" version="1.1">
<g id="surface1">
<path style=" stroke:none;fill-rule:nonzero;fill:rgb(57.647061%,20%,91.764706%);fill-opacity:1;" d="M 22.230469 34.132812 C 21.066406 32.960938 21.066406 31.0625 22.230469 29.890625 L 49.753906 2.132812 C 50.917969 0.960938 52.808594 0.964844 53.96875 2.144531 L 86.523438 35.285156 C 87.675781 36.457031 87.671875 38.351562 86.515625 39.515625 L 59.144531 67.121094 C 57.980469 68.292969 56.097656 68.292969 54.9375 67.121094 Z M 22.230469 34.132812 "/>
<path style=" stroke:none;fill-rule:nonzero;fill:rgb(65.882355%,33.333334%,96.862745%);fill-opacity:1;" d="M 24.46875 38.863281 C 23.304688 37.691406 23.304688 35.792969 24.46875 34.621094 L 54.441406 4.394531 C 55.605469 3.21875 57.496094 3.222656 58.65625 4.402344 L 94.046875 40.429688 C 95.199219 41.601562 95.195312 43.496094 94.039062 44.664062 L 64.230469 74.722656 C 63.070312 75.894531 61.1875 75.894531 60.023438 74.722656 Z M 24.46875 38.863281 "/>
<path style=" stroke:none;fill-rule:nonzero;fill:rgb(100%,100%,100%);fill-opacity:1;" d="M 29.523438 41.457031 L 61.425781 9.285156 C 62.585938 8.117188 64.472656 8.117188 65.632812 9.285156 L 97.535156 41.457031 C 98.695312 42.628906 98.695312 44.53125 97.535156 45.699219 L 65.632812 77.871094 C 64.472656 79.042969 62.585938 79.042969 61.425781 77.871094 L 29.523438 45.699219 C 28.363281 44.53125 28.363281 42.628906 29.523438 41.457031 Z M 29.523438 41.457031 "/>
<path style=" stroke:none;fill-rule:nonzero;fill:rgb(61.56863%,27.843139%,92.54902%);fill-opacity:1;" d="M 46.167969 34.226562 L 73.394531 34.226562 L 73.394531 35.820312 L 46.167969 35.820312 Z M 46.167969 34.226562 "/>
<path style=" stroke:none;fill-rule:nonzero;fill:rgb(61.56863%,27.843139%,92.54902%);fill-opacity:1;" d="M 46.167969 48.554688 L 65.109375 48.554688 L 65.109375 50.144531 L 46.167969 50.144531 Z M 46.167969 48.554688 "/>
<path style=" stroke:none;fill-rule:nonzero;fill:rgb(61.56863%,27.843139%,92.54902%);fill-opacity:1;" d="M 46.167969 39.003906 L 80.894531 39.003906 L 80.894531 40.59375 L 46.167969 40.59375 Z M 46.167969 39.003906 "/>
<path style=" stroke:none;fill-rule:nonzero;fill:rgb(61.56863%,27.843139%,92.54902%);fill-opacity:1;" d="M 46.167969 43.777344 L 84.050781 43.777344 L 84.050781 45.371094 L 46.167969 45.371094 Z M 46.167969 43.777344 "/>
<path style=" stroke:none;fill-rule:nonzero;fill:rgb(61.56863%,27.843139%,92.54902%);fill-opacity:1;" d="M 3.492188 30.140625 L 22.691406 49.507812 L 19.199219 53.027344 L 0 33.660156 Z M 3.492188 30.140625 "/>
<path style=" stroke:none;fill-rule:nonzero;fill:rgb(61.56863%,27.843139%,92.54902%);fill-opacity:1;" d="M 113.507812 46.769531 L 94.308594 27.402344 L 97.800781 23.882812 L 116.996094 43.25 Z M 113.507812 46.769531 "/>
<path style=" stroke:none;fill-rule:nonzero;fill:rgb(61.56863%,27.843139%,92.54902%);fill-opacity:1;" d="M 0.015625 33.5 L 20.382812 12.964844 L 23.871094 16.488281 L 3.503906 37.023438 Z M 0.015625 33.5 "/>
<path style=" stroke:none;fill-rule:nonzero;fill:rgb(61.56863%,27.843139%,92.54902%);fill-opacity:1;" d="M 116.984375 43.40625 L 96.617188 63.941406 L 93.125 60.421875 L 113.492188 39.886719 Z M 116.984375 43.40625 "/>
</g>
</svg>
