<?xml version="1.0" encoding="UTF-8"?>
<svg xmlns="http://www.w3.org/2000/svg" xmlns:xlink="http://www.w3.org/1999/xlink" width="295px" height="200px" viewBox="0 0 294 200" version="1.1">
<g id="surface1">
<path style=" stroke:none;fill-rule:nonzero;fill:rgb(57.647061%,20%,91.764706%);fill-opacity:1;" d="M 55.855469 85.335938 C 52.9375 82.40625 52.9375 77.65625 55.859375 74.730469 L 125.019531 5.335938 C 127.949219 2.398438 132.699219 2.410156 135.613281 5.363281 L 217.421875 88.210938 C 220.3125 91.144531 220.304688 95.875 217.394531 98.792969 L 148.613281 167.804688 C 145.695312 170.730469 140.964844 170.730469 138.042969 167.804688 Z M 55.855469 85.335938 "/>
<path style=" stroke:none;fill-rule:nonzero;fill:rgb(65.882355%,33.333334%,96.862745%);fill-opacity:1;" d="M 61.484375 97.15625 C 58.5625 94.226562 58.5625 89.480469 61.484375 86.550781 L 136.800781 10.980469 C 139.730469 8.042969 144.480469 8.054688 147.394531 11.007812 L 236.328125 101.074219 C 239.222656 104.007812 239.210938 108.738281 236.300781 111.65625 L 161.398438 186.808594 C 158.480469 189.738281 153.75 189.738281 150.828125 186.808594 Z M 61.484375 97.15625 "/>
<path style=" stroke:none;fill-rule:nonzero;fill:rgb(100%,100%,100%);fill-opacity:1;" d="M 74.191406 103.644531 L 154.351562 23.21875 C 157.273438 20.289062 162.003906 20.289062 164.921875 23.21875 L 245.085938 103.644531 C 248.003906 106.574219 248.003906 111.324219 245.085938 114.253906 L 164.921875 194.683594 C 162.003906 197.609375 157.273438 197.609375 154.351562 194.683594 L 74.191406 114.253906 C 71.273438 111.324219 71.273438 106.574219 74.191406 103.644531 Z M 74.191406 103.644531 "/>
<path style=" stroke:none;fill-rule:nonzero;fill:rgb(61.56863%,27.843139%,92.54902%);fill-opacity:1;" d="M 116.011719 85.570312 L 184.429688 85.570312 L 184.429688 89.546875 L 116.011719 89.546875 Z M 116.011719 85.570312 "/>
<path style=" stroke:none;fill-rule:nonzero;fill:rgb(61.56863%,27.843139%,92.54902%);fill-opacity:1;" d="M 116.011719 121.386719 L 163.609375 121.386719 L 163.609375 125.363281 L 116.011719 125.363281 Z M 116.011719 121.386719 "/>
<path style=" stroke:none;fill-rule:nonzero;fill:rgb(61.56863%,27.843139%,92.54902%);fill-opacity:1;" d="M 116.011719 97.507812 L 203.269531 97.507812 L 203.269531 101.488281 L 116.011719 101.488281 Z M 116.011719 97.507812 "/>
<path style=" stroke:none;fill-rule:nonzero;fill:rgb(61.56863%,27.843139%,92.54902%);fill-opacity:1;" d="M 116.011719 109.445312 L 211.203125 109.445312 L 211.203125 113.425781 L 116.011719 113.425781 Z M 116.011719 109.445312 "/>
<path style=" stroke:none;fill-rule:nonzero;fill:rgb(61.56863%,27.843139%,92.54902%);fill-opacity:1;" d="M 8.773438 75.351562 L 57.015625 123.765625 L 48.242188 132.566406 L 0 84.152344 Z M 8.773438 75.351562 "/>
<path style=" stroke:none;fill-rule:nonzero;fill:rgb(61.56863%,27.843139%,92.54902%);fill-opacity:1;" d="M 285.222656 116.921875 L 236.976562 68.507812 L 245.75 59.707031 L 293.996094 108.121094 Z M 285.222656 116.921875 "/>
<path style=" stroke:none;fill-rule:nonzero;fill:rgb(61.56863%,27.843139%,92.54902%);fill-opacity:1;" d="M 0.0351562 83.753906 L 51.214844 32.414062 L 59.984375 41.21875 L 8.808594 92.554688 Z M 0.0351562 83.753906 "/>
<path style=" stroke:none;fill-rule:nonzero;fill:rgb(61.56863%,27.843139%,92.54902%);fill-opacity:1;" d="M 293.957031 108.515625 L 242.78125 159.855469 L 234.007812 151.054688 L 285.1875 99.714844 Z M 293.957031 108.515625 "/>
</g>
</svg>
