<?xml version="1.0" encoding="UTF-8"?>
<svg xmlns="http://www.w3.org/2000/svg" xmlns:xlink="http://www.w3.org/1999/xlink" width="1475px" height="1000px" viewBox="0 0 1474 1000" version="1.1">
<g id="surface1">
<path style=" stroke:none;fill-rule:nonzero;fill:rgb(57.647061%,20%,91.764706%);fill-opacity:1;" d="M 280.046875 426.675781 C 265.414062 412.03125 265.414062 388.289062 280.046875 373.648438 L 626.796875 26.683594 C 641.480469 11.992188 665.300781 12.046875 679.917969 26.808594 L 1090.058594 441.0625 C 1104.566406 455.726562 1104.511719 479.371094 1089.929688 493.96875 L 745.097656 839.015625 C 730.460938 853.660156 706.734375 853.660156 692.101562 839.015625 Z M 280.046875 426.675781 "/>
<path style=" stroke:none;fill-rule:nonzero;fill:rgb(65.882355%,33.333334%,96.862745%);fill-opacity:1;" d="M 308.253906 485.785156 C 293.617188 471.140625 293.617188 447.402344 308.253906 432.757812 L 685.867188 54.910156 C 700.546875 40.21875 724.371094 40.273438 738.984375 55.035156 L 1184.851562 505.375 C 1199.371094 520.039062 1199.316406 543.683594 1184.722656 558.28125 L 809.195312 934.046875 C 794.5625 948.691406 770.832031 948.691406 756.199219 934.046875 Z M 308.253906 485.785156 "/>
<path style=" stroke:none;fill-rule:nonzero;fill:rgb(100%,100%,100%);fill-opacity:1;" d="M 371.96875 518.230469 L 773.863281 116.085938 C 788.5 101.441406 812.226562 101.441406 826.859375 116.085938 L 1228.757812 518.230469 C 1243.390625 532.875 1243.390625 556.617188 1228.757812 571.261719 L 826.859375 973.410156 C 812.226562 988.050781 788.5 988.050781 773.863281 973.410156 L 371.96875 571.261719 C 357.332031 556.617188 357.332031 532.875 371.96875 518.230469 Z M 371.96875 518.230469 "/>
<path style=" stroke:none;fill-rule:nonzero;fill:rgb(61.56863%,27.843139%,92.54902%);fill-opacity:1;" d="M 581.644531 427.84375 L 924.664062 427.84375 L 924.664062 447.742188 L 581.644531 447.742188 Z M 581.644531 427.84375 "/>
<path style=" stroke:none;fill-rule:nonzero;fill:rgb(61.56863%,27.843139%,92.54902%);fill-opacity:1;" d="M 581.644531 606.925781 L 820.265625 606.925781 L 820.265625 626.824219 L 581.644531 626.824219 Z M 581.644531 606.925781 "/>
<path style=" stroke:none;fill-rule:nonzero;fill:rgb(61.56863%,27.843139%,92.54902%);fill-opacity:1;" d="M 581.644531 487.542969 L 1019.121094 487.542969 L 1019.121094 507.441406 L 581.644531 507.441406 Z M 581.644531 487.542969 "/>
<path style=" stroke:none;fill-rule:nonzero;fill:rgb(61.56863%,27.843139%,92.54902%);fill-opacity:1;" d="M 581.644531 547.230469 L 1058.894531 547.230469 L 1058.894531 567.128906 L 581.644531 567.128906 Z M 581.644531 547.230469 "/>
<path style=" stroke:none;fill-rule:nonzero;fill:rgb(61.56863%,27.843139%,92.54902%);fill-opacity:1;" d="M 43.988281 376.757812 L 285.859375 618.835938 L 241.871094 662.839844 L 0 420.761719 Z M 43.988281 376.757812 "/>
<path style=" stroke:none;fill-rule:nonzero;fill:rgb(61.56863%,27.843139%,92.54902%);fill-opacity:1;" d="M 1429.988281 584.605469 L 1188.113281 342.53125 L 1232.101562 298.527344 L 1473.976562 540.601562 Z M 1429.988281 584.605469 "/>
<path style=" stroke:none;fill-rule:nonzero;fill:rgb(61.56863%,27.843139%,92.54902%);fill-opacity:1;" d="M 0.175781 418.761719 L 256.765625 162.070312 L 300.742188 206.085938 L 44.152344 462.777344 Z M 0.175781 418.761719 "/>
<path style=" stroke:none;fill-rule:nonzero;fill:rgb(61.56863%,27.843139%,92.54902%);fill-opacity:1;" d="M 1473.792969 542.585938 L 1217.207031 799.277344 L 1173.230469 755.265625 L 1429.816406 498.570312 Z M 1473.792969 542.585938 "/>
</g>
</svg>
