<?xml version="1.0" encoding="UTF-8"?>
<svg xmlns="http://www.w3.org/2000/svg" xmlns:xlink="http://www.w3.org/1999/xlink" width="71px" height="48px" viewBox="0 0 70 48" version="1.1">
<g id="surface1">
<path style=" stroke:none;fill-rule:nonzero;fill:rgb(57.647061%,20%,91.764706%);fill-opacity:1;" d="M 13.300781 20.480469 C 12.605469 19.777344 12.605469 18.636719 13.300781 17.933594 L 29.765625 1.28125 C 30.464844 0.574219 31.59375 0.578125 32.289062 1.285156 L 51.765625 21.171875 C 52.457031 21.875 52.453125 23.011719 51.761719 23.710938 L 35.382812 40.273438 C 34.691406 40.976562 33.5625 40.976562 32.867188 40.273438 Z M 13.300781 20.480469 "/>
<path style=" stroke:none;fill-rule:nonzero;fill:rgb(65.882355%,33.333334%,96.862745%);fill-opacity:1;" d="M 14.640625 23.316406 C 13.945312 22.613281 13.945312 21.476562 14.640625 20.773438 L 32.570312 2.636719 C 33.269531 1.929688 34.398438 1.933594 35.09375 2.640625 L 56.269531 24.257812 C 56.957031 24.960938 56.957031 26.097656 56.261719 26.796875 L 38.429688 44.835938 C 37.734375 45.539062 36.605469 45.535156 35.910156 44.835938 Z M 14.640625 23.316406 "/>
<path style=" stroke:none;fill-rule:nonzero;fill:rgb(100%,100%,100%);fill-opacity:1;" d="M 17.664062 24.875 L 36.75 5.570312 C 37.445312 4.871094 38.574219 4.871094 39.265625 5.570312 L 58.351562 24.875 C 59.046875 25.578125 59.046875 26.71875 58.351562 27.421875 L 39.265625 46.722656 C 38.574219 47.425781 37.445312 47.425781 36.75 46.722656 L 17.664062 27.421875 C 16.96875 26.71875 16.96875 25.578125 17.664062 24.875 Z M 17.664062 24.875 "/>
<path style=" stroke:none;fill-rule:nonzero;fill:rgb(61.56863%,27.843139%,92.54902%);fill-opacity:1;" d="M 27.621094 20.535156 L 43.914062 20.535156 L 43.914062 21.492188 L 27.621094 21.492188 Z M 27.621094 20.535156 "/>
<path style=" stroke:none;fill-rule:nonzero;fill:rgb(61.56863%,27.843139%,92.54902%);fill-opacity:1;" d="M 27.621094 29.132812 L 38.953125 29.132812 L 38.953125 30.085938 L 27.621094 30.085938 Z M 27.621094 29.132812 "/>
<path style=" stroke:none;fill-rule:nonzero;fill:rgb(61.56863%,27.843139%,92.54902%);fill-opacity:1;" d="M 27.621094 23.402344 L 48.398438 23.402344 L 48.398438 24.355469 L 27.621094 24.355469 Z M 27.621094 23.402344 "/>
<path style=" stroke:none;fill-rule:nonzero;fill:rgb(61.56863%,27.843139%,92.54902%);fill-opacity:1;" d="M 27.621094 26.265625 L 50.285156 26.265625 L 50.285156 27.222656 L 27.621094 27.222656 Z M 27.621094 26.265625 "/>
<path style=" stroke:none;fill-rule:nonzero;fill:rgb(61.56863%,27.843139%,92.54902%);fill-opacity:1;" d="M 2.089844 18.085938 L 13.574219 29.703125 L 11.488281 31.816406 L 0 20.195312 Z M 2.089844 18.085938 "/>
<path style=" stroke:none;fill-rule:nonzero;fill:rgb(61.56863%,27.843139%,92.54902%);fill-opacity:1;" d="M 67.910156 28.0625 L 56.421875 16.441406 L 58.511719 14.328125 L 70 25.949219 Z M 67.910156 28.0625 "/>
<path style=" stroke:none;fill-rule:nonzero;fill:rgb(61.56863%,27.843139%,92.54902%);fill-opacity:1;" d="M 0.0078125 20.101562 L 12.195312 7.78125 L 14.28125 9.890625 L 2.097656 22.214844 Z M 0.0078125 20.101562 "/>
<path style=" stroke:none;fill-rule:nonzero;fill:rgb(61.56863%,27.843139%,92.54902%);fill-opacity:1;" d="M 69.988281 26.042969 L 57.804688 38.367188 L 55.714844 36.253906 L 67.902344 23.929688 Z M 69.988281 26.042969 "/>
</g>
</svg>
